{
  "title": "Big Hero 6 2014 HDCAM NEW SOURCE XviD AC3 ACAB",
  "uid": 11514344,
  "size": 1013061762,
  "categoryP": "video",
  "categoryS": "movies",
  "magnet": "?xt=urn:btih:4f3c1b495f86269b4497b6d6f66f6c6b3cf8db46&amp;dn=Big+Hero+6+2014+HDCAM+NEW+SOURCE+XviD+AC3+ACAB&amp;tr=udp%3A%2F%2Ftracker.openbittorrent.com%3A80&amp;tr=udp%3A%2F%2Fopen.demonii.com%3A1337&amp;tr=udp%3A%2F%2Ftracker.coppersurfer.tk%3A6969&amp;tr=udp%3A%2F%2Fexodus.desync.com%3A6969",
  "seeders": 279,
  "leechers": 30,
  "uploader": "xxxlavalxxx",
  "files": -1,
  "time": 1416434075,
  "description": "[IMG]http://i.imgur.com/jDwTIUg.jpg[/IMG]\n &lt;a href=&quot;\nhttp://www.imdb.com/title/tt2245084/&quot; rel=&quot;nofollow&quot; target=&quot;_NEW&quot;&gt;\nhttp://www.imdb.com/title/tt2245084/&lt;/a&gt;\n\n\nThe special bond that develops between plus-sized inflatable robot Baymax, and prodigy Hiro Hamada, who team up with a group of friends to form a band of high-tech heroes.\n\nDirectors: Don Hall, Chris Williams\nWriters: Jordan Roberts (screenplay), Daniel Gerson (screenplay)\nStars: Ryan Potter, Scott Adsit, Jamie Chung \nGenres: Animation,Action,Adventure,Comedy,Family,Sci-Fi\nCountry: USA\nLanguage: English\n\n\nFormat: AVI\nFormat/Info: Audio Video Interleave\nFile size: 950 MiB\nDuration: 1h 30mn\nOverall bit rate: 1 465 Kbps\nWriting library: VirtualDub build 30091/release\n\nVideo\nID: 0\nFormat: MPEG-4 Visual\nFormat profile: Advanced Simple@L5\nFormat settings, BVOP: 2\nFormat settings, QPel: No\nFormat settings, GMC: No warppoints\nFormat settings, Matrix: Default (H.263)\nMuxing mode: Packed bitstream\nCodec ID: XVID\nCodec ID/Hint: XviD\nDuration: 1h 30mn\nBit rate: 1 200 Kbps\nWidth: 704 pixels\nHeight: 304 pixels\nDisplay aspect ratio: 2.35:1\nFrame rate: 23.976 fps\nColor space: YUV\nChroma subsampling: 4:2:0\nBit depth: 8 bits\nScan type: Progressive\nCompression mode: Lossy\nBits/(Pixel*Frame): 0.234\nStream size: 778 MiB (82%)\nWriting library: XviD 66\n\nAudio\nID: 1\nFormat: AC-3\nFormat/Info: Audio Coding 3\nMode extension: CM (complete main)\nFormat settings, Endianness: Big\nCodec ID: 2000\nDuration: 1h 30mn\nBit rate mode: Constant\nBit rate: 256 Kbps\nChannel(s): 2 channels\nChannel positions: Front: L R\nSampling rate: 48.0 KHz\nBit depth: 16 bits\nCompression mode: Lossy\nStream size: 166 MiB (17%)\nAlignment: Aligned on interleaves\nInterleave, duration: 42 ms (1.00 video frame)\nInterleave, preload duration: 512 ms\n\nSource: Pimp Audio\nHDCAM Latino Video[Thanks]\n\n\nscreens\n &lt;a href=&quot;\nhttp://i.imgur.com/zx20DTV.png&quot; rel=&quot;nofollow&quot; target=&quot;_NEW&quot;&gt;\nhttp://i.imgur.com/zx20DTV.png&lt;/a&gt; &lt;a href=&quot;\nhttp://i.imgur.com/1gqW5Tc.png&quot; rel=&quot;nofollow&quot; target=&quot;_NEW&quot;&gt;\nhttp://i.imgur.com/1gqW5Tc.png&lt;/a&gt; &lt;a href=&quot;\nhttp://i.imgur.com/KcNWWgC.png&quot; rel=&quot;nofollow&quot; target=&quot;_NEW&quot;&gt;\nhttp://i.imgur.com/KcNWWgC.png&lt;/a&gt; &lt;a href=&quot;\nhttp://i.imgur.com/dyBKstT.png&quot; rel=&quot;nofollow&quot; target=&quot;_NEW&quot;&gt;\nhttp://i.imgur.com/dyBKstT.png&lt;/a&gt;",
  "parsed": {
    "xt": "urn:btih:4f3c1b495f86269b4497b6d6f66f6c6b3cf8db46",
    "dn": "Big Hero 6 2014 HDCAM NEW SOURCE XviD AC3 ACAB",
    "tr": [
      "udp://exodus.desync.com:6969",
      "udp://open.demonii.com:1337",
      "udp://tracker.coppersurfer.tk:6969",
      "udp://tracker.openbittorrent.com:80"
    ],
    "infoHash": "4f3c1b495f86269b4497b6d6f66f6c6b3cf8db46",
    "infoHashBuffer": {
      "type": "Buffer",
      "data": [
        79,
        60,
        27,
        73,
        95,
        134,
        38,
        155,
        68,
        151,
        182,
        214,
        246,
        111,
        108,
        107,
        60,
        248,
        219,
        70
      ]
    },
    "name": "Big Hero 6 2014 HDCAM NEW SOURCE XviD AC3 ACAB",
    "announce": [
      "udp://exodus.desync.com:6969",
      "udp://open.demonii.com:1337",
      "udp://tracker.coppersurfer.tk:6969",
      "udp://tracker.openbittorrent.com:80"
    ],
    "urlList": []
  },
  "previous": 3,
  "peers": 23,
  "last_updated": "2016-12-26T23:57:18.855Z"
}